PathFileType	4	(X/Y/Z)	s06c0302.trc
DataRate	CameraRate	NumFrames	NumMarkers	Units	OrigDataRate	OrigDataStartFrame	OrigNumFrames
200	200	4	48	mm	200	1000	2000
Frame#	Time	racr			lacr			c7			jug			rlel			rdr			llel			ldr			s2			lic			ric			lasi			rasi			rpsi			lpsi			rgt			lgt			rth1			rth2			rth3			rth4			rlfc			rmfc			rsh1			rsh2			rsh3			rsh4			rlmal			rcal			rtoe			rmt5			lth1			lth2			lth4			lth3			llfc			lmfc			llmal			lcal			lmt5			lsh1			lsh2			lsh3			lsh4			ltoe			SBIKE			LBIKE			RBIKE			
		X1	Y1	Z1	X2	Y2	Z2	X3	Y3	Z3	X4	Y4	Z4	X5	Y5	Z5	X6	Y6	Z6	X7	Y7	Z7	X8	Y8	Z8	X9	Y9	Z9	X10	Y10	Z10	X11	Y11	Z11	X12	Y12	Z12	X13	Y13	Z13	X14	Y14	Z14	X15	Y15	Z15	X16	Y16	Z16	X17	Y17	Z17	X18	Y18	Z18	X19	Y19	Z19	X20	Y20	Z20	X21	Y21	Z21	X22	Y22	Z22	X23	Y23	Z23	X24	Y24	Z24	X25	Y25	Z25	X26	Y26	Z26	X27	Y27	Z27	X28	Y28	Z28	X29	Y29	Z29	X30	Y30	Z30	X31	Y31	Z31	X32	Y32	Z32	X33	Y33	Z33	X34	Y34	Z34	X35	Y35	Z35	X36	Y36	Z36	X37	Y37	Z37	X38	Y38	Z38	X39	Y39	Z39	X40	Y40	Z40	X41	Y41	Z41	X42	Y42	Z42	X43	Y43	Z43	X44	Y44	Z44	X45	Y45	Z45	X46	Y46	Z46	X47	Y47	Z47	X48	Y48	Z48	
1000	5.0000	766.219506	1176.022999	-58.052263	781.901222	1185.758605	-372.526336	805.472367	1249.067343	-217.565589	734.538666	1095.018989	-223.919409	569.036129	1044.827791	71.423135	713.631677	926.631054	-42.150985	581.672496	1066.772363	-515.010911	717.095910	922.496166	-422.022605	228.621676	1246.547149	-260.171495	371.766965	1154.964891	-399.971054	331.648542	1147.905742	-74.149477	366.063584	1096.703169	-364.105898	351.028636	1099.404403	-108.148317	261.076532	1256.955934	-212.453332	266.232757	1259.869994	-272.687935	276.139341	1087.495208	-49.674035	331.673836	1103.596984	-432.413792	312.310165	960.249843	-23.893841	352.763755	878.945851	-22.120915	347.428155	791.927224	-29.569051	387.712915	887.621840	-33.806506	359.045913	684.932689	-41.140217	359.626063	660.803322	-151.078712	326.302050	563.112188	-19.571158	327.389325	477.544170	-39.121348	287.229006	400.965574	-47.634495	352.398175	476.080322	-71.067066	260.603703	323.390563	-56.498988	197.358587	305.657191	-106.182309	462.733891	225.637510	-93.623767	361.334369	230.654530	-27.765994	362.853696	991.187330	-443.903014	423.037886	928.545959	-434.567111	451.819092	945.065938	-417.942360	444.635322	841.347385	-431.794306	443.894343	729.507199	-409.911348	443.477207	715.093363	-294.367048	131.922137	536.512883	-375.803647	80.594564	583.965253	-329.006078	114.361676	387.893406	-397.771125	360.349568	658.105653	-425.205868	301.923827	599.879143	-397.470162	217.335794	572.871031	-391.051328	319.238773	584.424124	-365.935494	152.558693	310.469934	-338.722026	-202.936278	865.818252	-209.945740	-50.752494	79.998793	-410.211013	-50.315962	79.742751	-13.270201	
1001	5.0050	768.106401	1177.888287	-59.745733	781.872977	1187.082865	-373.933937	805.068000	1250.483619	-218.305676	735.866931	1095.713724	-225.004828	573.222624	1046.909410	74.086395	713.937527	926.708185	-41.859590	580.807459	1066.389818	-514.482202	717.209744	922.670761	-422.067160	227.586475	1243.751080	-256.419843	371.113864	1155.818020	-398.740822	333.266033	1142.218701	-73.996783	366.024748	1097.522105	-363.343517	351.444010	1094.097323	-109.172365	260.524987	1253.499414	-208.706531	265.313092	1257.149664	-266.406665	276.066004	1081.417427	-49.520644	331.138350	1105.608028	-431.475061	309.923689	954.331113	-23.627423	347.997868	872.075963	-22.170182	340.771770	785.224590	-29.999435	383.312896	879.596758	-34.135108	350.320423	677.189204	-41.871472	350.226839	653.832428	-151.599878	318.965367	555.765113	-19.855195	321.491048	470.112382	-38.947427	281.735891	393.159862	-47.456713	345.576730	469.414304	-71.180981	255.847217	315.573324	-56.221730	192.646487	298.843699	-105.845872	457.007015	215.069092	-93.792544	355.698813	221.604317	-27.726811	365.272605	994.267458	-444.873107	426.808332	932.916570	-436.337095	455.437959	949.979581	-420.202632	450.434887	846.271145	-434.396994	451.823123	734.422487	-411.406297	450.642636	720.742898	-295.952347	137.536502	545.652191	-376.231842	85.985167	593.073233	-329.447826	120.605862	397.051965	-397.945583	367.200138	664.273969	-426.332193	308.010192	607.063535	-398.630051	223.149431	581.126856	-391.808385	325.431346	590.996313	-367.390492	159.079619	319.760549	-338.785157	-203.016463	865.838977	-210.014134	-50.746573	80.059681	-410.219459	-50.319735	79.768005	-13.277620	
1002	5.0100	769.949098	1180.487834	-61.642049	781.787156	1188.592856	-375.395280	804.736682	1252.223548	-219.304655	737.003587	1096.959606	-226.245791	577.529267	1049.711834	76.412687	714.536970	926.776551	-41.835013	579.907080	1065.870500	-513.911005	717.546756	923.092637	-421.989248	226.505397	1240.866255	-252.549592	370.388643	1156.770277	-397.498030	334.319158	1136.573051	-73.149403	365.980090	1098.348601	-362.474384	352.040162	1089.084305	-109.395467	260.069566	1250.104438	-205.029646	264.315571	1254.597026	-263.191104	276.674505	1075.270809	-49.222693	330.210664	1107.684491	-430.405688	307.750988	948.314296	-23.283709	343.372092	864.979974	-22.359729	333.805280	778.435889	-30.508386	378.862485	871.748933	-34.343121	341.624250	669.865770	-42.524303	340.585747	646.421433	-151.759854	311.451901	548.972023	-20.124256	314.957423	463.331601	-38.868506	275.954472	385.797186	-47.128260	338.697285	462.821875	-71.338629	250.806344	308.278605	-55.828049	188.136496	292.085759	-105.634127	450.770085	204.673808	-93.930589	349.669392	212.804013	-27.702475	367.350217	997.482807	-445.942223	430.184826	937.478811	-438.043378	458.590435	954.993860	-422.380186	455.783100	851.417736	-437.293614	459.747238	739.370998	-412.863328	456.782393	725.795496	-298.119031	143.610321	554.447019	-376.761408	91.633127	601.570837	-329.766428	127.397890	405.818976	-398.111796	374.219728	670.612561	-427.764807	314.334037	614.295214	-399.761614	229.256902	589.324538	-392.706713	331.834762	597.636685	-368.779128	166.344429	328.836808	-338.863376	-203.020979	865.841311	-210.108431	-50.754244	80.015900	-410.236249	-50.288111	79.758058	-13.332770	
1003	5.0150	771.752099	1183.561999	-63.872427	781.618966	1190.124210	-376.964247	804.511877	1254.217702	-220.726930	738.033029	1098.564606	-227.595720	582.138480	1052.784103	78.626248	715.499881	926.845049	-41.360847	578.964326	1065.174257	-513.212637	717.648696	923.192033	-421.836742	225.406055	1237.907136	-248.578993	369.529879	1157.888649	-396.305258	335.816772	1131.349772	-71.846608	365.947652	1099.251826	-361.550573	353.466690	1084.591649	-109.058535	259.736645	1246.603993	-201.244995	263.258448	1252.108242	-259.567693	277.266382	1069.315641	-49.028162	329.169100	1109.782063	-429.349241	305.472651	942.300445	-22.804790	338.854163	857.882190	-22.749123	326.488898	771.624500	-30.890004	374.227998	863.687863	-34.597688	332.260237	663.539562	-43.090169	330.589477	639.069122	-151.731584	303.556429	542.751416	-20.348114	308.019022	457.076470	-38.782239	269.774779	379.170724	-46.775007	332.125019	456.811888	-71.414144	245.693975	301.450831	-55.350964	182.940845	286.633665	-105.105378	444.157311	194.555493	-94.088975	343.274300	204.308296	-27.632670	368.912936	1000.422547	-446.524151	432.865178	942.068116	-439.776921	461.514063	960.084571	-423.623105	460.617507	856.787974	-440.230659	467.612326	744.612538	-414.290601	464.433415	731.565579	-300.188470	150.071355	562.636520	-377.432632	97.449016	609.783481	-330.233255	134.718367	414.034486	-398.279759	381.449936	676.870263	-429.145469	321.071445	621.345878	-400.993305	235.732461	597.383793	-393.778411	338.464333	604.299090	-370.197690	174.365184	337.532029	-338.863387	-202.985531	865.796138	-210.139052	-50.716991	79.981737	-410.251076	-50.290918	79.723334	-13.362190	
